<?xml version="1.0" encoding="UTF-8"?>
<svg width="740px" height="740px" viewBox="0 0 891 891" version="1.1" xmlns="http://www.w3.org/2000/svg" xmlns:xlink="http://www.w3.org/1999/xlink">
    <!-- Generator: Sketch 52.5 (67469) - http://www.bohemiancoding.com/sketch -->
    <title>bg-display</title>
    <desc>Created with Sketch.</desc>
    <defs>
        <linearGradient x1="20.9738462%" y1="70.1967531%" x2="55.3923696%" y2="31.8742338%" id="linearGradient-1">
            <stop stop-color="#9733EE" offset="0%"></stop>
            <stop stop-color="#08D2F9" offset="100%"></stop>
        </linearGradient>
    </defs>
    <g id="bg-display" stroke="none" stroke-width="1" fill="none" fill-rule="evenodd">
        <path d="M285.685714,733.307143 L284.978571,734.014286 L157.692857,606.728571 L158.4,606.021429 L188.917105,636.525727 L246.189273,579.253559 L5.68434189e-14,333.064286 L333.064286,2.27373675e-13 L891,557.935714 L557.935714,891 L311.246416,644.310702 L253.974248,701.58287 L285.685714,733.307143 Z M253.267105,700.875727 L310.45074,643.692092 L246.807883,580.049234 L189.624248,637.23287 L253.267105,700.875727 Z M333.064286,1.41428571 L1.41428571,333.064286 L557.935714,889.585714 L889.585714,557.935714 L333.064286,1.41428571 Z M318.567857,29.5535459 L30.0535714,318.067832 L572.432143,860.446403 L860.946429,571.932117 L318.567857,29.5535459 Z M318.567857,28.1392602 L862.360714,571.932117 L572.432143,861.860689 L28.6392857,318.067832 L318.567857,28.1392602 Z M285.809873,604.690102 C287.53708,606.41731 290.267811,606.466644 291.90862,604.825835 C293.549428,603.185027 293.500094,600.454296 291.772886,598.727088 C290.045679,596.999881 287.314948,596.950546 285.674139,598.591355 C284.03333,600.232164 284.082665,602.962894 285.809873,604.690102 Z M285.10273,605.397245 C282.990581,603.285096 282.929811,599.921397 284.966996,597.884212 C287.004181,595.847027 290.367881,595.907797 292.480029,598.019945 C294.592178,600.132094 294.652947,603.495793 292.615763,605.532978 C290.578578,607.570163 287.214878,607.509393 285.10273,605.397245 Z M300.772476,618.850161 C302.499684,620.577369 305.230414,620.626703 306.871223,618.985894 C308.512032,617.345086 308.462697,614.614355 306.73549,612.887147 C305.008282,611.15994 302.277551,611.110605 300.636743,612.751414 C298.995934,614.392223 299.045268,617.122953 300.772476,618.850161 Z M300.065333,619.557304 C297.953185,617.445155 297.892415,614.081456 299.9296,612.044271 C301.966785,610.007086 305.330484,610.067856 307.442632,612.180004 C309.554781,614.292153 309.615551,617.655852 307.578366,619.693037 C305.541181,621.730222 302.177482,621.669452 300.065333,619.557304 Z M271.649814,589.727498 C273.377021,591.454706 276.107752,591.504041 277.748561,589.863232 C279.389369,588.222423 279.340035,585.491693 277.612827,583.764485 C275.885619,582.037277 273.154889,581.987943 271.51408,583.628751 C269.873271,585.26956 269.922606,588.000291 271.649814,589.727498 Z M270.942671,590.434641 C268.830522,588.322493 268.769752,584.958794 270.806937,582.921609 C272.844122,580.884424 276.207822,580.945194 278.31997,583.057342 C280.432118,585.169491 280.492888,588.53319 278.455704,590.570375 C276.418519,592.60756 273.054819,592.54679 270.942671,590.434641 Z" id="合并形状" fill="url(#linearGradient-1)" fill-rule="nonzero"></path>
    </g>
</svg>