<?xml version="1.0" encoding="UTF-8"?>
<svg width="588px" height="588px" viewBox="0 0 588 588" version="1.1" xmlns="http://www.w3.org/2000/svg" xmlns:xlink="http://www.w3.org/1999/xlink">
    <!-- Generator: Sketch 52.5 (67469) - http://www.bohemiancoding.com/sketch -->
    <title>bg-joystick</title>
    <desc>Created with Sketch.</desc>
    <defs>
        <linearGradient x1="63.1718869%" y1="50%" x2="-0.853399411%" y2="75.4399864%" id="linearGradient-1">
            <stop stop-color="#9733EE" offset="0%"></stop>
            <stop stop-color="#08D2F9" offset="100%"></stop>
        </linearGradient>
    </defs>
    <g id="bg-joystick" stroke="none" stroke-width="1" fill="none" fill-rule="evenodd">
        <path d="M325.001762,325.001762 L326.101846,324.822351 L406.583884,244.340313 C415.909915,235.014283 438.553732,233.790793 480.082549,237.524247 C484.183839,237.892954 488.491091,238.307784 493.70091,238.830466 C534.344716,242.90811 533.370889,242.818298 545.005148,243.20311 C560.995637,243.732008 570.789788,242.310698 574.558814,238.541672 C575.904535,237.195951 578.416179,233.377078 580.516536,228.885715 C583.604763,222.281909 585.693008,214.763351 586.297725,206.561984 C587.970835,183.870707 578.284771,159.677556 553.58387,134.976656 C527.714281,109.107067 478.131239,77.0896997 421.08079,47.8050393 C369.863445,21.5145794 321.7404,2.31503321 303.937194,1.10485343 C288.056623,0.0253655575 267.598749,7.25550542 245.186564,20.2629008 C229.314478,29.4746088 212.797306,41.6888231 206.717707,47.7684216 C203.105308,51.3808211 201.379117,54.4364014 200.4071,58.008448 C200.301206,58.3975927 199.597855,61.4648397 199.325387,62.2665211 C198.940062,63.4002558 198.427818,64.2906097 197.656714,65.0617139 L65.0617139,197.656714 C64.2906097,198.427818 63.4002558,198.940062 62.2665211,199.325387 C61.4648397,199.597855 58.3975927,200.301206 58.008448,200.4071 C54.4364014,201.379117 51.3808211,203.105308 47.7684216,206.717707 C41.6888231,212.797306 29.4746088,229.314478 20.2629008,245.186564 C7.25550542,267.598749 0.0253655575,288.056623 1.10485343,303.937194 C2.31503321,321.7404 21.5145794,369.863445 47.8050393,421.08079 C77.0896997,478.131239 109.107067,527.714281 134.976656,553.58387 C159.677556,578.284771 183.870707,587.970835 206.561984,586.297725 C214.763351,585.693008 222.281909,583.604763 228.885715,580.516536 C233.377078,578.416179 237.195951,575.904535 238.541672,574.558814 C242.310698,570.789788 243.732008,560.995637 243.20311,545.005148 C242.818298,533.370889 242.90811,534.344716 238.830466,493.70091 C238.307784,488.491091 237.892954,484.183839 237.524247,480.082549 C233.790793,438.553732 235.014283,415.909915 244.340313,406.583884 L324.822351,326.101846 L325.001762,325.001762 Z M196.949607,64.3546071 C200.215743,61.0884708 197.310019,55.7618966 206.0106,47.0613148 C214.711182,38.3607331 267.775896,-2.35553234 304.005013,0.107155784 C340.234129,2.56984391 497.76708,77.7456525 554.290977,134.269549 C610.814874,190.793446 578.786206,235.728493 575.265921,239.248779 C557.777092,256.737607 430.973495,221.364916 407.290991,245.04742 L326.580991,325.75742 L325.872901,325.872901 L325.75742,326.580991 L245.04742,407.290991 C221.364916,430.973495 256.737607,557.777092 239.248779,575.265921 C235.728493,578.786206 190.793446,610.814874 134.269549,554.290977 C77.7456525,497.76708 2.56984391,340.234129 0.107155784,304.005013 C-2.35553234,267.775896 38.3607331,214.711182 47.0613148,206.0106 C55.7618966,197.310019 61.0884708,200.215743 64.3546071,196.949607 L196.949607,64.3546071 Z M172.089042,232.589042 C177.165858,227.512226 177.165858,219.281081 172.089042,214.204266 C167.012226,209.12745 158.781081,209.12745 153.704266,214.204266 C148.62745,219.281081 148.62745,227.512226 153.704266,232.589042 C158.781081,237.665858 167.012226,237.665858 172.089042,232.589042 Z M172.796149,233.296149 C167.328809,238.763489 158.464499,238.763489 152.997159,233.296149 C147.529819,227.828809 147.529819,218.964499 152.997159,213.497159 C158.464499,208.029819 167.328809,208.029819 172.796149,213.497159 C178.263489,218.964499 178.263489,227.828809 172.796149,233.296149 Z M232.089042,172.589042 C237.165858,167.512226 237.165858,159.281081 232.089042,154.204266 C227.012226,149.12745 218.781081,149.12745 213.704266,154.204266 C208.62745,159.281081 208.62745,167.512226 213.704266,172.589042 C218.781081,177.665858 227.012226,177.665858 232.089042,172.589042 Z M232.796149,173.296149 C227.328809,178.763489 218.464499,178.763489 212.997159,173.296149 C207.529819,167.828809 207.529819,158.964499 212.997159,153.497159 C218.464499,148.029819 227.328809,148.029819 232.796149,153.497159 C238.263489,158.964499 238.263489,167.828809 232.796149,173.296149 Z M291.038789,74.5387893 C298.849275,66.7283035 298.849275,54.0650039 291.038789,46.254518 C283.228303,38.4440322 270.565004,38.4440322 262.754518,46.254518 C254.944032,54.0650039 254.944032,66.7283035 262.754518,74.5387893 C270.565004,82.3492751 283.228303,82.3492751 291.038789,74.5387893 Z M291.745896,75.2458961 C283.544886,83.4469062 270.248421,83.4469062 262.047411,75.2458961 C253.846401,67.0448859 253.846401,53.7484214 262.047411,45.5474113 C270.248421,37.3464011 283.544886,37.3464011 291.745896,45.5474113 C299.946906,53.7484214 299.946906,67.0448859 291.745896,75.2458961 Z M347.038789,130.538789 C354.849275,122.728303 354.849275,110.065004 347.038789,102.254518 C339.228303,94.4440322 326.565004,94.4440322 318.754518,102.254518 C310.944032,110.065004 310.944032,122.728303 318.754518,130.538789 C326.565004,138.349275 339.228303,138.349275 347.038789,130.538789 Z M347.745896,131.245896 C339.544886,139.446906 326.248421,139.446906 318.047411,131.245896 C309.846401,123.044886 309.846401,109.748421 318.047411,101.547411 C326.248421,93.3464011 339.544886,93.3464011 347.745896,101.547411 C355.946906,109.748421 355.946906,123.044886 347.745896,131.245896 Z M318.754518,74.5387893 C326.565004,82.3492751 339.228303,82.3492751 347.038789,74.5387893 C354.849275,66.7283035 354.849275,54.0650039 347.038789,46.254518 C339.228303,38.4440322 326.565004,38.4440322 318.754518,46.254518 C310.944032,54.0650039 310.944032,66.7283035 318.754518,74.5387893 Z M318.047411,75.2458961 C309.846401,67.0448859 309.846401,53.7484214 318.047411,45.5474113 C326.248421,37.3464011 339.544886,37.3464011 347.745896,45.5474113 C355.946906,53.7484214 355.946906,67.0448859 347.745896,75.2458961 C339.544886,83.4469062 326.248421,83.4469062 318.047411,75.2458961 Z M262.754518,130.538789 C270.565004,138.349275 283.228303,138.349275 291.038789,130.538789 C298.849275,122.728303 298.849275,110.065004 291.038789,102.254518 C283.228303,94.4440322 270.565004,94.4440322 262.754518,102.254518 C254.944032,110.065004 254.944032,122.728303 262.754518,130.538789 Z M262.047411,131.245896 C253.846401,123.044886 253.846401,109.748421 262.047411,101.547411 C270.248421,93.3464011 283.544886,93.3464011 291.745896,101.547411 C299.946906,109.748421 299.946906,123.044886 291.745896,131.245896 C283.544886,139.446906 270.248421,139.446906 262.047411,131.245896 Z M112.206051,327.706051 C126.460188,313.451915 126.460188,290.341393 112.206051,276.087256 C97.9519145,261.83312 74.8413928,261.83312 60.5872562,276.087256 C46.3331195,290.341393 46.3331195,313.451915 60.5872562,327.706051 C74.8413928,341.960188 97.9519145,341.960188 112.206051,327.706051 Z M112.913158,328.413158 C98.268497,343.057819 74.5248103,343.057819 59.8801494,328.413158 C45.2354884,313.768497 45.2354884,290.02481 59.8801494,275.380149 C74.5248103,260.735488 98.268497,260.735488 112.913158,275.380149 C127.557819,290.02481 127.557819,313.768497 112.913158,328.413158 Z M340.206051,228.706051 C354.460188,214.451915 354.460188,191.341393 340.206051,177.087256 C325.951915,162.83312 302.841393,162.83312 288.587256,177.087256 C274.33312,191.341393 274.33312,214.451915 288.587256,228.706051 C302.841393,242.960188 325.951915,242.960188 340.206051,228.706051 Z M340.913158,229.413158 C326.268497,244.057819 302.52481,244.057819 287.880149,229.413158 C273.235488,214.768497 273.235488,191.02481 287.880149,176.380149 C302.52481,161.735488 326.268497,161.735488 340.913158,176.380149 C355.557819,191.02481 355.557819,214.768497 340.913158,229.413158 Z M184.794542,318.896654 L165.27994,338.411255 C167.491144,343.070638 170.496336,347.343053 174.223295,351.070012 C177.950254,354.796971 182.22267,357.802164 186.882054,360.013366 L206.396654,340.498766 L225.911255,360.013367 C230.570638,357.802164 234.843053,354.796971 238.570012,351.070012 C242.296971,347.343054 245.302164,343.070638 247.513366,338.411254 L227.998766,318.896654 L247.513367,299.382052 C245.302164,294.72267 242.296971,290.450254 238.570012,286.723295 C234.843054,282.996336 230.570638,279.991144 225.911254,277.779941 L206.396654,297.294542 L186.882052,277.77994 C182.22267,279.991144 177.950254,282.996336 174.223295,286.723295 C170.496336,290.450254 167.491144,294.72267 165.279941,299.382054 L184.794542,318.896654 Z M164.078205,299.594531 C166.321553,294.674301 169.467548,290.064829 173.516188,286.016188 C177.564829,281.967548 182.174301,278.821553 187.094531,276.578205 L206.396654,295.880328 L225.698777,276.578205 C230.619006,278.821553 235.228479,281.967548 239.277119,286.016188 C243.325759,290.064829 246.471754,294.674301 248.715102,299.594531 L229.412979,318.896654 L248.715102,338.198777 C246.471754,343.119006 243.325759,347.728479 239.277119,351.777119 C235.228479,355.825759 230.619006,358.971754 225.698777,361.215102 L206.396654,341.912979 L187.094531,361.215102 C182.174301,358.971754 177.564829,355.825759 173.516188,351.777119 C169.467548,347.728479 166.321553,343.119006 164.078205,338.198777 L183.380328,318.896654 L164.078205,299.594531 Z" id="形状" fill="url(#linearGradient-1)" fill-rule="nonzero"></path>
    </g>
</svg>