<?xml version="1.0" encoding="UTF-8"?>
<svg width="1169px" height="1169px" viewBox="0 0 1169 1169" version="1.1" xmlns="http://www.w3.org/2000/svg" xmlns:xlink="http://www.w3.org/1999/xlink">
    <!-- Generator: Sketch 52.5 (67469) - http://www.bohemiancoding.com/sketch -->
    <title>bg-keyboard</title>
    <desc>Created with Sketch.</desc>
    <defs>
        <linearGradient x1="84.0245815%" y1="22.8803952%" x2="31.6451139%" y2="91.7717376%" id="linearGradient-1">
            <stop stop-color="#9733EE" offset="0%"></stop>
            <stop stop-color="#08D2F9" offset="100%"></stop>
        </linearGradient>
    </defs>
    <g id="bg-keyboard" stroke="none" stroke-width="1" fill="none" fill-rule="evenodd">
        <path d="M1.41416238,791.930933 L377.069067,1167.58584 L1167.58584,377.069067 L791.930933,1.41416238 L1.41416238,791.930933 Z M-5.68434189e-14,791.930933 L791.930933,-1.13686838e-13 L1169,377.069067 L377.069067,1169 L-5.68434189e-14,791.930933 Z M75.0779115,828.209873 C72.3443404,830.943444 72.3443404,835.375439 75.0779115,838.10901 L94.6859938,857.717092 C97.4195649,860.450663 101.851559,860.450663 104.58513,857.717092 L141.371758,820.930465 C144.105329,818.196894 144.105329,813.764899 141.371758,811.031328 L121.763676,791.423246 C119.030104,788.689675 114.59811,788.689675 111.864539,791.423246 L75.0779115,828.209873 Z M74.3708303,827.502792 L111.157458,790.716165 C114.281539,787.592083 119.346676,787.592083 122.470757,790.716165 L142.078839,810.324247 C145.20292,813.448328 145.20292,818.513465 142.078839,821.637546 L105.292212,858.424173 C102.16813,861.548255 97.1029938,861.548255 93.9789126,858.424173 L74.3708303,838.816091 C71.246749,835.69201 71.246749,830.626873 74.3708303,827.502792 Z M130.049256,773.238529 C127.315685,775.9721 127.315685,780.404094 130.049256,783.137665 L149.657338,802.745748 C152.390909,805.479319 156.822904,805.479319 159.556475,802.745748 L196.343102,765.95912 C199.076674,763.225549 199.076674,758.793555 196.343102,756.059983 L176.73502,736.451901 C174.001449,733.71833 169.569455,733.71833 166.835884,736.451901 L130.049256,773.238529 Z M129.342175,772.531447 L166.128802,735.74482 C169.252884,732.620739 174.31802,732.620739 177.442101,735.74482 L197.050184,755.352902 C200.174265,758.476984 200.174265,763.54212 197.050184,766.666201 L160.263556,803.452829 C157.139475,806.57691 152.074338,806.57691 148.950257,803.452829 L129.342175,783.844747 C126.218094,780.720665 126.218094,775.655529 129.342175,772.531447 Z M185.020601,718.267184 C182.28703,721.000755 182.28703,725.43275 185.020601,728.166321 L204.628683,747.774403 C207.362254,750.507974 211.794249,750.507974 214.52782,747.774403 L251.314447,710.987776 C254.048018,708.254204 254.048018,703.82221 251.314447,701.088639 L231.706365,681.480557 C228.972794,678.746985 224.540799,678.746985 221.807228,681.480557 L185.020601,718.267184 Z M184.313519,717.560103 L221.100147,680.773475 C224.224228,677.649394 229.289365,677.649394 232.413446,680.773475 L252.021528,700.381558 C255.14561,703.505639 255.14561,708.570775 252.021528,711.694857 L215.234901,748.481484 C212.11082,751.605565 207.045683,751.605565 203.921602,748.481484 L184.313519,728.873402 C181.189438,725.749321 181.189438,720.684184 184.313519,717.560103 Z M239.991945,663.295839 C237.258374,666.029411 237.258374,670.461405 239.991945,673.194976 L259.600028,692.803058 C262.333599,695.53663 266.765593,695.53663 269.499164,692.803058 L306.285792,656.016431 C309.019363,653.28286 309.019363,648.850865 306.285792,646.117294 L286.677709,626.509212 C283.944138,623.775641 279.512144,623.775641 276.778573,626.509212 L239.991945,663.295839 Z M239.284864,662.588758 L276.071492,625.802131 C279.195573,622.67805 284.260709,622.67805 287.384791,625.802131 L306.992873,645.410213 C310.116954,648.534294 310.116954,653.599431 306.992873,656.723512 L270.206245,693.51014 C267.082164,696.634221 262.017028,696.634221 258.892946,693.51014 L239.284864,673.902057 C236.160783,670.777976 236.160783,665.71284 239.284864,662.588758 Z M294.96329,608.324495 C292.229719,611.058066 292.229719,615.49006 294.96329,618.223632 L314.571372,637.831714 C317.304943,640.565285 321.736938,640.565285 324.470509,637.831714 L361.257136,601.045086 C363.990707,598.311515 363.990707,593.879521 361.257136,591.14595 L341.649054,571.537867 C338.915483,568.804296 334.483488,568.804296 331.749917,571.537867 L294.96329,608.324495 Z M294.256209,607.617414 L331.042836,570.830786 C334.166917,567.706705 339.232054,567.706705 342.356135,570.830786 L361.964217,590.438868 C365.088299,593.56295 365.088299,598.628086 361.964217,601.752168 L325.17759,638.538795 C322.053509,641.662876 316.988372,641.662876 313.864291,638.538795 L294.256209,618.930713 C291.132127,615.806631 291.132127,610.741495 294.256209,607.617414 Z M349.934634,553.35315 C347.201063,556.086721 347.201063,560.518716 349.934634,563.252287 L369.542717,582.860369 C372.276288,585.59394 376.708282,585.59394 379.441853,582.860369 L416.228481,546.073742 C418.962052,543.340171 418.962052,538.908176 416.228481,536.174605 L396.620399,516.566523 C393.886827,513.832952 389.454833,513.832952 386.721262,516.566523 L349.934634,553.35315 Z M349.227553,552.646069 L386.014181,515.859442 C389.138262,512.73536 394.203399,512.73536 397.32748,515.859442 L416.935562,535.467524 C420.059643,538.591605 420.059643,543.656742 416.935562,546.780823 L380.148935,583.56745 C377.024853,586.691532 371.959717,586.691532 368.835636,583.56745 L349.227553,563.959368 C346.103472,560.835287 346.103472,555.77015 349.227553,552.646069 Z M404.905979,498.381806 C402.172408,501.115377 402.172408,505.547371 404.905979,508.280942 L424.514061,527.889025 C427.247632,530.622596 431.679627,530.622596 434.413198,527.889025 L471.199825,491.102397 C473.933397,488.368826 473.933397,483.936832 471.199825,481.20326 L451.591743,461.595178 C448.858172,458.861607 444.426178,458.861607 441.692607,461.595178 L404.905979,498.381806 Z M404.198898,497.674724 L440.985525,460.888097 C444.109607,457.764016 449.174743,457.764016 452.298824,460.888097 L471.906907,480.496179 C475.030988,483.620261 475.030988,488.685397 471.906907,491.809478 L435.120279,528.596106 C431.996198,531.720187 426.931061,531.720187 423.80698,528.596106 L404.198898,508.988024 C401.074817,505.863942 401.074817,500.798806 404.198898,497.674724 Z M459.877324,443.410461 C457.143753,446.144032 457.143753,450.576027 459.877324,453.309598 L479.485406,472.91768 C482.218977,475.651251 486.650972,475.651251 489.384543,472.91768 L526.17117,436.131053 C528.904741,433.397481 528.904741,428.965487 526.17117,426.231916 L506.563088,406.623834 C503.829517,403.890262 499.397522,403.890262 496.663951,406.623834 L459.877324,443.410461 Z M459.170242,442.70338 L495.95687,405.916752 C499.080951,402.792671 504.146088,402.792671 507.270169,405.916752 L526.878251,425.524835 C530.002333,428.648916 530.002333,433.714052 526.878251,436.838134 L490.091624,473.624761 C486.967543,476.748842 481.902406,476.748842 478.778325,473.624761 L459.170242,454.016679 C456.046161,450.892598 456.046161,445.827461 459.170242,442.70338 Z M514.848668,388.439116 C512.115097,391.172688 512.115097,395.604682 514.848668,398.338253 L534.456751,417.946335 C537.190322,420.679907 541.622316,420.679907 544.355887,417.946335 L581.142515,381.159708 C583.876086,378.426137 583.876086,373.994142 581.142515,371.260571 L561.534432,351.652489 C558.800861,348.918918 554.368867,348.918918 551.635296,351.652489 L514.848668,388.439116 Z M514.141587,387.732035 L550.928215,350.945408 C554.052296,347.821327 559.117432,347.821327 562.241514,350.945408 L581.849596,370.55349 C584.973677,373.677571 584.973677,378.742708 581.849596,381.866789 L545.062968,418.653417 C541.938887,421.777498 536.873751,421.777498 533.749669,418.653417 L514.141587,399.045334 C511.017506,395.921253 511.017506,390.856117 514.141587,387.732035 Z M569.820013,333.467772 C567.086442,336.201343 567.086442,340.633337 569.820013,343.366909 L589.428095,362.974991 C592.161666,365.708562 596.593661,365.708562 599.327232,362.974991 L636.113859,326.188363 C638.84743,323.454792 638.84743,319.022798 636.113859,316.289227 L616.505777,296.681144 C613.772206,293.947573 609.340211,293.947573 606.60664,296.681144 L569.820013,333.467772 Z M569.112932,332.760691 L605.899559,295.974063 C609.02364,292.849982 614.088777,292.849982 617.212858,295.974063 L636.82094,315.582145 C639.945022,318.706227 639.945022,323.771363 636.82094,326.895445 L600.034313,363.682072 C596.910232,366.806153 591.845095,366.806153 588.721014,363.682072 L569.112932,344.07399 C565.98885,340.949908 565.98885,335.884772 569.112932,332.760691 Z M624.791357,278.496427 C622.057786,281.229998 622.057786,285.661993 624.791357,288.395564 L644.39944,308.003646 C647.133011,310.737217 651.565005,310.737217 654.298576,308.003646 L691.085204,271.217019 C693.818775,268.483448 693.818775,264.051453 691.085204,261.317882 L671.477122,241.7098 C668.74355,238.976229 664.311556,238.976229 661.577985,241.7098 L624.791357,278.496427 Z M624.084276,277.789346 L660.870904,241.002719 C663.994985,237.878637 669.060122,237.878637 672.184203,241.002719 L691.792285,260.610801 C694.916366,263.734882 694.916366,268.800019 691.792285,271.9241 L655.005658,308.710727 C651.881576,311.834809 646.81644,311.834809 643.692359,308.710727 L624.084276,289.102645 C620.960195,285.978564 620.960195,280.913427 624.084276,277.789346 Z M679.762702,223.525083 C677.029131,226.258654 677.029131,230.690648 679.762702,233.424219 L699.370784,253.032302 C702.104355,255.765873 706.53635,255.765873 709.269921,253.032302 L746.056548,216.245674 C748.79012,213.512103 748.79012,209.080109 746.056548,206.346537 L726.448466,186.738455 C723.714895,184.004884 719.282901,184.004884 716.54933,186.738455 L679.762702,223.525083 Z M679.055621,222.818001 L715.842248,186.031374 C718.96633,182.907293 724.031466,182.907293 727.155547,186.031374 L746.76363,205.639456 C749.887711,208.763538 749.887711,213.828674 746.76363,216.952755 L709.977002,253.739383 C706.852921,256.863464 701.787784,256.863464 698.663703,253.739383 L679.055621,234.131301 C675.93154,231.007219 675.93154,225.942083 679.055621,222.818001 Z M734.734047,168.553738 C732.000476,171.287309 732.000476,175.719304 734.734047,178.452875 L754.342129,198.060957 C757.0757,200.794528 761.507695,200.794528 764.241266,198.060957 L801.027893,161.27433 C803.761464,158.540758 803.761464,154.108764 801.027893,151.375193 L781.419811,131.767111 C778.68624,129.033539 774.254245,129.033539 771.520674,131.767111 L734.734047,168.553738 Z M734.026965,167.846657 L770.813593,131.060029 C773.937674,127.935948 779.002811,127.935948 782.126892,131.060029 L801.734974,150.668112 C804.859056,153.792193 804.859056,158.857329 801.734974,161.981411 L764.948347,198.768038 C761.824266,201.892119 756.759129,201.892119 753.635048,198.768038 L734.026965,179.159956 C730.902884,176.035875 730.902884,170.970738 734.026965,167.846657 Z M789.705391,113.582393 C786.97182,116.315965 786.97182,120.747959 789.705391,123.48153 L809.313474,143.089612 C812.047045,145.823184 816.479039,145.823184 819.21261,143.089612 L855.999238,106.302985 C858.732809,103.569414 858.732809,99.1374194 855.999238,96.4038483 L836.391155,76.795766 C833.657584,74.0621949 829.22559,74.0621949 826.492019,76.795766 L789.705391,113.582393 Z M788.99831,112.875312 L825.784938,76.0886848 C828.909019,72.9646035 833.974155,72.9646035 837.098237,76.0886848 L856.706319,95.6967671 C859.8304,98.8208483 859.8304,103.885985 856.706319,107.010066 L819.919691,143.796694 C816.79561,146.920775 811.730474,146.920775 808.606392,143.796694 L788.99831,124.188611 C785.874229,121.06453 785.874229,115.999394 788.99831,112.875312 Z M112.870711,866.002673 C110.13714,868.736244 110.13714,873.168238 112.870711,875.901809 L149.657338,912.688437 C152.390909,915.422008 156.822904,915.422008 159.556475,912.688437 L196.343102,875.901809 C199.076674,873.168238 199.076674,868.736244 196.343102,866.002673 L159.556475,829.216045 C156.822904,826.482474 152.390909,826.482474 149.657338,829.216045 L112.870711,866.002673 Z M112.16363,865.295591 L148.950257,828.508964 C152.074338,825.384883 157.139475,825.384883 160.263556,828.508964 L197.050184,865.295591 C200.174265,868.419673 200.174265,873.484809 197.050184,876.608891 L160.263556,913.395518 C157.139475,916.519599 152.074338,916.519599 148.950257,913.395518 L112.16363,876.608891 C109.039548,873.484809 109.039548,868.419673 112.16363,865.295591 Z M170.418837,808.454546 C167.685266,811.188117 167.685266,815.620112 170.418837,818.353683 L207.205465,855.14031 C209.939036,857.873882 214.37103,857.873882 217.104601,855.14031 L253.891229,818.353683 C256.6248,815.620112 256.6248,811.188117 253.891229,808.454546 L217.104601,771.667919 C214.37103,768.934348 209.939036,768.934348 207.205465,771.667919 L170.418837,808.454546 Z M169.711756,807.747465 L206.498384,770.960838 C209.622465,767.836756 214.687601,767.836756 217.811683,770.960838 L254.59831,807.747465 C257.722391,810.871546 257.722391,815.936683 254.59831,819.060764 L217.811683,855.847392 C214.687601,858.971473 209.622465,858.971473 206.498384,855.847392 L169.711756,819.060764 C166.587675,815.936683 166.587675,810.871546 169.711756,807.747465 Z M227.108036,751.765347 C224.374465,754.498918 224.374465,758.930913 227.108036,761.664484 L263.894664,798.451111 C266.628235,801.184682 271.060229,801.184682 273.793801,798.451111 L310.580428,761.664484 C313.313999,758.930913 313.313999,754.498918 310.580428,751.765347 L273.793801,714.97872 C271.060229,712.245149 266.628235,712.245149 263.894664,714.97872 L227.108036,751.765347 Z M226.400955,751.058266 L263.187583,714.271639 C266.311664,711.147557 271.3768,711.147557 274.500882,714.271639 L311.287509,751.058266 C314.41159,754.182347 314.41159,759.247484 311.287509,762.371565 L274.500882,799.158193 C271.3768,802.282274 266.311664,802.282274 263.187583,799.158193 L226.400955,762.371565 C223.276874,759.247484 223.276874,754.182347 226.400955,751.058266 Z M284.656163,694.217221 C281.922592,696.950792 281.922592,701.382786 284.656163,704.116357 L321.44279,740.902985 C324.176361,743.636556 328.608356,743.636556 331.341927,740.902985 L368.128554,704.116357 C370.862125,701.382786 370.862125,696.950792 368.128554,694.217221 L331.341927,657.430593 C328.608356,654.697022 324.176361,654.697022 321.44279,657.430593 L284.656163,694.217221 Z M283.949082,693.51014 L320.735709,656.723512 C323.85979,653.599431 328.924927,653.599431 332.049008,656.723512 L368.835636,693.51014 C371.959717,696.634221 371.959717,701.699357 368.835636,704.823439 L332.049008,741.610066 C328.924927,744.734147 323.85979,744.734147 320.735709,741.610066 L283.949082,704.823439 C280.825,701.699357 280.825,696.634221 283.949082,693.51014 Z M342.204289,636.669094 C339.470718,639.402666 339.470718,643.83466 342.204289,646.568231 L378.990917,683.354859 C381.724488,686.08843 386.156482,686.08843 388.890053,683.354859 L425.676681,646.568231 C428.410252,643.83466 428.410252,639.402666 425.676681,636.669094 L388.890053,599.882467 C386.156482,597.148896 381.724488,597.148896 378.990917,599.882467 L342.204289,636.669094 Z M341.497208,635.962013 L378.283835,599.175386 C381.407917,596.051304 386.473053,596.051304 389.597134,599.175386 L426.383762,635.962013 C429.507843,639.086094 429.507843,644.151231 426.383762,647.275312 L389.597134,684.06194 C386.473053,687.186021 381.407917,687.186021 378.283835,684.06194 L341.497208,647.275312 C338.373127,644.151231 338.373127,639.086094 341.497208,635.962013 Z M398.893488,579.979895 C396.159917,582.713466 396.159917,587.145461 398.893488,589.879032 L435.680116,626.665659 C438.413687,629.399231 442.845681,629.399231 445.579252,626.665659 L482.36588,589.879032 C485.099451,587.145461 485.099451,582.713466 482.36588,579.979895 L445.579252,543.193268 C442.845681,540.459697 438.413687,540.459697 435.680116,543.193268 L398.893488,579.979895 Z M398.186407,579.272814 L434.973035,542.486187 C438.097116,539.362105 443.162252,539.362105 446.286334,542.486187 L483.072961,579.272814 C486.197042,582.396895 486.197042,587.462032 483.072961,590.586113 L446.286334,627.372741 C443.162252,630.496822 438.097116,630.496822 434.973035,627.372741 L398.186407,590.586113 C395.062326,587.462032 395.062326,582.396895 398.186407,579.272814 Z M456.441615,522.431769 C453.708044,525.16534 453.708044,529.597334 456.441615,532.330906 L493.228242,569.117533 C495.961813,571.851104 500.393808,571.851104 503.127379,569.117533 L539.914006,532.330906 C542.647577,529.597334 542.647577,525.16534 539.914006,522.431769 L503.127379,485.645141 C500.393808,482.91157 495.961813,482.91157 493.228242,485.645141 L456.441615,522.431769 Z M455.734533,521.724688 L492.521161,484.93806 C495.645242,481.813979 500.710379,481.813979 503.83446,484.93806 L540.621087,521.724688 C543.745169,524.848769 543.745169,529.913906 540.621087,533.037987 L503.83446,569.824614 C500.710379,572.948696 495.645242,572.948696 492.521161,569.824614 L455.734533,533.037987 C452.610452,529.913906 452.610452,524.848769 455.734533,521.724688 Z M513.989741,464.883643 C511.25617,467.617214 511.25617,472.049208 513.989741,474.782779 L550.776368,511.569407 C553.50994,514.302978 557.941934,514.302978 560.675505,511.569407 L597.462133,474.782779 C600.195704,472.049208 600.195704,467.617214 597.462133,464.883643 L560.675505,428.097015 C557.941934,425.363444 553.50994,425.363444 550.776368,428.097015 L513.989741,464.883643 Z M513.28266,464.176561 L550.069287,427.389934 C553.193369,424.265853 558.258505,424.265853 561.382586,427.389934 L598.169214,464.176561 C601.293295,467.300643 601.293295,472.365779 598.169214,475.48986 L561.382586,512.276488 C558.258505,515.400569 553.193369,515.400569 550.069287,512.276488 L513.28266,475.48986 C510.158579,472.365779 510.158579,467.300643 513.28266,464.176561 Z M570.67894,408.194443 C567.945369,410.928015 567.945369,415.360009 570.67894,418.09358 L607.465568,454.880208 C610.199139,457.613779 614.631133,457.613779 617.364704,454.880208 L654.151332,418.09358 C656.884903,415.360009 656.884903,410.928015 654.151332,408.194443 L617.364704,371.407816 C614.631133,368.674245 610.199139,368.674245 607.465568,371.407816 L570.67894,408.194443 Z M569.971859,407.487362 L606.758486,370.700735 C609.882568,367.576653 614.947704,367.576653 618.071785,370.700735 L654.858413,407.487362 C657.982494,410.611444 657.982494,415.67658 654.858413,418.800661 L618.071785,455.587289 C614.947704,458.71137 609.882568,458.71137 606.758486,455.587289 L569.971859,418.800661 C566.847778,415.67658 566.847778,410.611444 569.971859,407.487362 Z M628.227066,350.646317 C625.493495,353.379888 625.493495,357.811883 628.227066,360.545454 L665.013694,397.332081 C667.747265,400.065652 672.17926,400.065652 674.912831,397.332081 L711.699458,360.545454 C714.433029,357.811883 714.433029,353.379888 711.699458,350.646317 L674.912831,313.85969 C672.17926,311.126118 667.747265,311.126118 665.013694,313.85969 L628.227066,350.646317 Z M627.519985,349.939236 L664.306613,313.152608 C667.430694,310.028527 672.495831,310.028527 675.619912,313.152608 L712.406539,349.939236 C715.530621,353.063317 715.530621,358.128454 712.406539,361.252535 L675.619912,398.039162 C672.495831,401.163244 667.430694,401.163244 664.306613,398.039162 L627.519985,361.252535 C624.395904,358.128454 624.395904,353.063317 627.519985,349.939236 Z M685.775193,293.098191 C683.041622,295.831762 683.041622,300.263756 685.775193,302.997327 L722.56182,339.783955 C725.295391,342.517526 729.727386,342.517526 732.460957,339.783955 L769.247584,302.997327 C771.981156,300.263756 771.981156,295.831762 769.247584,293.098191 L732.460957,256.311563 C729.727386,253.577992 725.295391,253.577992 722.56182,256.311563 L685.775193,293.098191 Z M685.068112,292.391109 L721.854739,255.604482 C724.97882,252.480401 730.043957,252.480401 733.168038,255.604482 L769.954666,292.391109 C773.078747,295.515191 773.078747,300.580327 769.954666,303.704409 L733.168038,340.491036 C730.043957,343.615117 724.97882,343.615117 721.854739,340.491036 L685.068112,303.704409 C681.94403,300.580327 681.94403,295.515191 685.068112,292.391109 Z M742.464392,236.408992 C739.730821,239.142563 739.730821,243.574557 742.464392,246.308128 L779.251019,283.094756 C781.984591,285.828327 786.416585,285.828327 789.150156,283.094756 L825.936784,246.308128 C828.670355,243.574557 828.670355,239.142563 825.936784,236.408992 L789.150156,199.622364 C786.416585,196.888793 781.984591,196.888793 779.251019,199.622364 L742.464392,236.408992 Z M741.757311,235.70191 L778.543938,198.915283 C781.66802,195.791202 786.733156,195.791202 789.857237,198.915283 L826.643865,235.70191 C829.767946,238.825992 829.767946,243.891128 826.643865,247.015209 L789.857237,283.801837 C786.733156,286.925918 781.66802,286.925918 778.543938,283.801837 L741.757311,247.015209 C738.63323,243.891128 738.63323,238.825992 741.757311,235.70191 Z M800.012518,178.860865 C797.278947,181.594436 797.278947,186.026431 800.012518,188.760002 L836.799146,225.546629 C839.532717,228.2802 843.964711,228.2802 846.698283,225.546629 L910.970582,161.27433 C913.704153,158.540758 913.704153,154.108764 910.970582,151.375193 L874.183955,114.588565 C871.450384,111.854994 867.018389,111.854994 864.284818,114.588565 L800.012518,178.860865 Z M799.305437,178.153784 L863.577737,113.881484 C866.701818,110.757403 871.766955,110.757403 874.891036,113.881484 L911.677663,150.668112 C914.801745,153.792193 914.801745,158.857329 911.677663,161.981411 L847.405364,226.253711 C844.281282,229.377792 839.216146,229.377792 836.092065,226.253711 L799.305437,189.467083 C796.181356,186.343002 796.181356,181.277865 799.305437,178.153784 Z M167.842055,920.974017 C165.108484,923.707588 165.108484,928.139583 167.842055,930.873154 L204.628683,967.659781 C207.362254,970.393353 211.794249,970.393353 214.52782,967.659781 L278.800119,903.387482 C281.533691,900.653911 281.533691,896.221916 278.800119,893.488345 L242.013492,856.701717 C239.279921,853.968146 234.847926,853.968146 232.114355,856.701717 L167.842055,920.974017 Z M167.134974,920.266936 L231.407274,855.994636 C234.531355,852.870555 239.596492,852.870555 242.720573,855.994636 L279.507201,892.781264 C282.631282,895.905345 282.631282,900.970482 279.507201,904.094563 L215.234901,968.366863 C212.11082,971.490944 207.045683,971.490944 203.921602,968.366863 L167.134974,931.580235 C164.010893,928.456154 164.010893,923.391017 167.134974,920.266936 Z M252.875854,835.940219 C250.142283,838.67379 250.142283,843.105784 252.875854,845.839355 L289.662482,882.625983 C292.396053,885.359554 296.828047,885.359554 299.561618,882.625983 L336.348246,845.839355 C339.081817,843.105784 339.081817,838.67379 336.348246,835.940219 L299.561618,799.153591 C296.828047,796.42002 292.396053,796.42002 289.662482,799.153591 L252.875854,835.940219 Z M252.168773,835.233137 L288.9554,798.44651 C292.079482,795.322429 297.144618,795.322429 300.268699,798.44651 L337.055327,835.233137 C340.179408,838.357219 340.179408,843.422355 337.055327,846.546436 L300.268699,883.333064 C297.144618,886.457145 292.079482,886.457145 288.9554,883.333064 L252.168773,846.546436 C249.044692,843.422355 249.044692,838.357219 252.168773,835.233137 Z M309.565053,779.251019 C306.831482,781.984591 306.831482,786.416585 309.565053,789.150156 L346.351681,825.936784 C349.085252,828.670355 353.517246,828.670355 356.250817,825.936784 L393.037445,789.150156 C395.771016,786.416585 395.771016,781.984591 393.037445,779.251019 L356.250817,742.464392 C353.517246,739.730821 349.085252,739.730821 346.351681,742.464392 L309.565053,779.251019 Z M308.857972,778.543938 L345.6446,741.757311 C348.768681,738.63323 353.833817,738.63323 356.957899,741.757311 L393.744526,778.543938 C396.868607,781.66802 396.868607,786.733156 393.744526,789.857237 L356.957899,826.643865 C353.833817,829.767946 348.768681,829.767946 345.6446,826.643865 L308.857972,789.857237 C305.733891,786.733156 305.733891,781.66802 308.857972,778.543938 Z M367.11318,721.702893 C364.379609,724.436464 364.379609,728.868459 367.11318,731.60203 L403.899807,768.388657 C406.633378,771.122228 411.065373,771.122228 413.798944,768.388657 L450.585571,731.60203 C453.319142,728.868459 453.319142,724.436464 450.585571,721.702893 L413.798944,684.916266 C411.065373,682.182695 406.633378,682.182695 403.899807,684.916266 L367.11318,721.702893 Z M366.406098,720.995812 L403.192726,684.209184 C406.316807,681.085103 411.381944,681.085103 414.506025,684.209184 L451.292652,720.995812 C454.416734,724.119893 454.416734,729.18503 451.292652,732.309111 L414.506025,769.095738 C411.381944,772.21982 406.316807,772.21982 403.192726,769.095738 L366.406098,732.309111 C363.282017,729.18503 363.282017,724.119893 366.406098,720.995812 Z M424.661306,664.154767 C421.927735,666.888338 421.927735,671.320332 424.661306,674.053903 L461.447934,710.840531 C464.181505,713.574102 468.613499,713.574102 471.34707,710.840531 L508.133698,674.053903 C510.867269,671.320332 510.867269,666.888338 508.133698,664.154767 L471.34707,627.368139 C468.613499,624.634568 464.181505,624.634568 461.447934,627.368139 L424.661306,664.154767 Z M423.954225,663.447686 L460.740852,626.661058 C463.864934,623.536977 468.93007,623.536977 472.054151,626.661058 L508.840779,663.447686 C511.96486,666.571767 511.96486,671.636903 508.840779,674.760985 L472.054151,711.547612 C468.93007,714.671693 463.864934,714.671693 460.740852,711.547612 L423.954225,674.760985 C420.830144,671.636903 420.830144,666.571767 423.954225,663.447686 Z M481.350505,607.465568 C478.616934,610.199139 478.616934,614.631133 481.350505,617.364704 L518.137133,654.151332 C520.870704,656.884903 525.302698,656.884903 528.036269,654.151332 L564.822897,617.364704 C567.556468,614.631133 567.556468,610.199139 564.822897,607.465568 L528.036269,570.67894 C525.302698,567.945369 520.870704,567.945369 518.137133,570.67894 L481.350505,607.465568 Z M480.643424,606.758486 L517.430051,569.971859 C520.554133,566.847778 525.619269,566.847778 528.74335,569.971859 L565.529978,606.758486 C568.654059,609.882568 568.654059,614.947704 565.529978,618.071785 L528.74335,654.858413 C525.619269,657.982494 520.554133,657.982494 517.430051,654.858413 L480.643424,618.071785 C477.519343,614.947704 477.519343,609.882568 480.643424,606.758486 Z M538.898632,549.917441 C536.16506,552.651012 536.16506,557.083007 538.898632,559.816578 L575.685259,596.603205 C578.41883,599.336776 582.850825,599.336776 585.584396,596.603205 L622.371023,559.816578 C625.104594,557.083007 625.104594,552.651012 622.371023,549.917441 L585.584396,513.130814 C582.850825,510.397243 578.41883,510.397243 575.685259,513.130814 L538.898632,549.917441 Z M538.19155,549.21036 L574.978178,512.423733 C578.102259,509.299651 583.167396,509.299651 586.291477,512.423733 L623.078104,549.21036 C626.202186,552.334441 626.202186,557.399578 623.078104,560.523659 L586.291477,597.310287 C583.167396,600.434368 578.102259,600.434368 574.978178,597.310287 L538.19155,560.523659 C535.067469,557.399578 535.067469,552.334441 538.19155,549.21036 Z M596.446758,492.369315 C593.713187,495.102886 593.713187,499.53488 596.446758,502.268452 L633.233385,539.055079 C635.966956,541.78865 640.398951,541.78865 643.132522,539.055079 L679.91915,502.268452 C682.652721,499.53488 682.652721,495.102886 679.91915,492.369315 L643.132522,455.582687 C640.398951,452.849116 635.966956,452.849116 633.233385,455.582687 L596.446758,492.369315 Z M595.739677,491.662234 L632.526304,454.875606 C635.650385,451.751525 640.715522,451.751525 643.839603,454.875606 L680.626231,491.662234 C683.750312,494.786315 683.750312,499.851451 680.626231,502.975533 L643.839603,539.76216 C640.715522,542.886241 635.650385,542.886241 632.526304,539.76216 L595.739677,502.975533 C592.615595,499.851451 592.615595,494.786315 595.739677,491.662234 Z M653.135957,435.680116 C650.402386,438.413687 650.402386,442.845681 653.135957,445.579252 L689.922584,482.36588 C692.656156,485.099451 697.08815,485.099451 699.821721,482.36588 L736.608349,445.579252 C739.34192,442.845681 739.34192,438.413687 736.608349,435.680116 L699.821721,398.893488 C697.08815,396.159917 692.656156,396.159917 689.922584,398.893488 L653.135957,435.680116 Z M652.428876,434.973035 L689.215503,398.186407 C692.339585,395.062326 697.404721,395.062326 700.528802,398.186407 L737.31543,434.973035 C740.439511,438.097116 740.439511,443.162252 737.31543,446.286334 L700.528802,483.072961 C697.404721,486.197042 692.339585,486.197042 689.215503,483.072961 L652.428876,446.286334 C649.304795,443.162252 649.304795,438.097116 652.428876,434.973035 Z M710.684083,378.131989 C707.950512,380.86556 707.950512,385.297555 710.684083,388.031126 L747.470711,424.817753 C750.204282,427.551325 754.636276,427.551325 757.369848,424.817753 L794.156475,388.031126 C796.890046,385.297555 796.890046,380.86556 794.156475,378.131989 L757.369848,341.345362 C754.636276,338.611791 750.204282,338.611791 747.470711,341.345362 L710.684083,378.131989 Z M709.977002,377.424908 L746.76363,340.638281 C749.887711,337.514199 754.952847,337.514199 758.076929,340.638281 L794.863556,377.424908 C797.987637,380.548989 797.987637,385.614126 794.863556,388.738207 L758.076929,425.524835 C754.952847,428.648916 749.887711,428.648916 746.76363,425.524835 L709.977002,388.738207 C706.852921,385.614126 706.852921,380.548989 709.977002,377.424908 Z M768.23221,320.583863 C765.498639,323.317434 765.498639,327.749429 768.23221,330.483 L805.018837,367.269627 C807.752408,370.003198 812.184403,370.003198 814.917974,367.269627 L851.704601,330.483 C854.438173,327.749429 854.438173,323.317434 851.704601,320.583863 L814.917974,283.797235 C812.184403,281.063664 807.752408,281.063664 805.018837,283.797235 L768.23221,320.583863 Z M767.525129,319.876782 L804.311756,283.090154 C807.435837,279.966073 812.500974,279.966073 815.625055,283.090154 L852.411683,319.876782 C855.535764,323.000863 855.535764,328.066 852.411683,331.190081 L815.625055,367.976708 C812.500974,371.10079 807.435837,371.10079 804.311756,367.976708 L767.525129,331.190081 C764.401047,328.066 764.401047,323.000863 767.525129,319.876782 Z M824.921409,263.894664 C822.187838,266.628235 822.187838,271.060229 824.921409,273.793801 L861.708036,310.580428 C864.441607,313.313999 868.873602,313.313999 871.607173,310.580428 L908.393801,273.793801 C911.127372,271.060229 911.127372,266.628235 908.393801,263.894664 L871.607173,227.108036 C868.873602,224.374465 864.441607,224.374465 861.708036,227.108036 L824.921409,263.894664 Z M824.214328,263.187583 L861.000955,226.400955 C864.125036,223.276874 869.190173,223.276874 872.314254,226.400955 L909.100882,263.187583 C912.224963,266.311664 912.224963,271.3768 909.100882,274.500882 L872.314254,311.287509 C869.190173,314.41159 864.125036,314.41159 861.000955,311.287509 L824.214328,274.500882 C821.090246,271.3768 821.090246,266.311664 824.214328,263.187583 Z M882.469535,206.346537 C879.735964,209.080109 879.735964,213.512103 882.469535,216.245674 L919.256163,253.032302 C921.989734,255.765873 926.421728,255.765873 929.155299,253.032302 L965.941927,216.245674 C968.675498,213.512103 968.675498,209.080109 965.941927,206.346537 L929.155299,169.55991 C926.421728,166.826339 921.989734,166.826339 919.256163,169.55991 L882.469535,206.346537 Z M881.762454,205.639456 L918.549082,168.852829 C921.673163,165.728748 926.738299,165.728748 929.862381,168.852829 L966.649008,205.639456 C969.773089,208.763538 969.773089,213.828674 966.649008,216.952755 L929.862381,253.739383 C926.738299,256.863464 921.673163,256.863464 918.549082,253.739383 L881.762454,216.952755 C878.638373,213.828674 878.638373,208.763538 881.762454,205.639456 Z M222.8134,975.945362 C220.079829,978.678933 220.079829,983.110927 222.8134,985.844499 L259.600028,1022.63113 C262.333599,1025.3647 266.765593,1025.3647 269.499164,1022.63113 L347.5143,944.61599 C350.247871,941.882419 350.247871,937.450425 347.5143,934.716853 L310.727673,897.930226 C307.994102,895.196655 303.562107,895.196655 300.828536,897.930226 L222.8134,975.945362 Z M222.106319,975.238281 L300.121455,897.223145 C303.245536,894.099063 308.310673,894.099063 311.434754,897.223145 L348.221381,934.009772 C351.345463,937.133853 351.345463,942.19899 348.221381,945.323071 L270.206245,1023.33821 C267.082164,1026.46229 262.017028,1026.46229 258.892946,1023.33821 L222.106319,986.55158 C218.982238,983.427498 218.982238,978.362362 222.106319,975.238281 Z M322.448962,876.3098 C319.715391,879.043371 319.715391,883.475365 322.448962,886.208936 L359.23559,922.995564 C361.969161,925.729135 366.401155,925.729135 369.134726,922.995564 L405.921354,886.208936 C408.654925,883.475365 408.654925,879.043371 405.921354,876.3098 L369.134726,839.523172 C366.401155,836.789601 361.969161,836.789601 359.23559,839.523172 L322.448962,876.3098 Z M321.741881,875.602719 L358.528508,838.816091 C361.65259,835.69201 366.717726,835.69201 369.841807,838.816091 L406.628435,875.602719 C409.752516,878.7268 409.752516,883.791936 406.628435,886.916018 L369.841807,923.702645 C366.717726,926.826726 361.65259,926.826726 358.528508,923.702645 L321.741881,886.916018 C318.6178,883.791936 318.6178,878.7268 321.741881,875.602719 Z M379.997089,818.761673 C377.263517,821.495245 377.263517,825.927239 379.997089,828.66081 L416.783716,865.447438 C419.517287,868.181009 423.949282,868.181009 426.682853,865.447438 L463.46948,828.66081 C466.203051,825.927239 466.203051,821.495245 463.46948,818.761673 L426.682853,781.975046 C423.949282,779.241475 419.517287,779.241475 416.783716,781.975046 L379.997089,818.761673 Z M379.290007,818.054592 L416.076635,781.267965 C419.200716,778.143883 424.265853,778.143883 427.389934,781.267965 L464.176561,818.054592 C467.300643,821.178673 467.300643,826.24381 464.176561,829.367891 L427.389934,866.154519 C424.265853,869.2786 419.200716,869.2786 416.076635,866.154519 L379.290007,829.367891 C376.165926,826.24381 376.165926,821.178673 379.290007,818.054592 Z M438.404142,760.35462 C435.670571,763.088191 435.670571,767.520185 438.404142,770.253756 L475.19077,807.040384 C477.924341,809.773955 482.356335,809.773955 485.089906,807.040384 L521.876534,770.253756 C524.610105,767.520185 524.610105,763.088191 521.876534,760.35462 L485.089906,723.567992 C482.356335,720.834421 477.924341,720.834421 475.19077,723.567992 L438.404142,760.35462 Z M437.697061,759.647539 L474.483688,722.860911 C477.60777,719.73683 482.672906,719.73683 485.796988,722.860911 L522.583615,759.647539 C525.707696,762.77162 525.707696,767.836756 522.583615,770.960838 L485.796988,807.747465 C482.672906,810.871546 477.60777,810.871546 474.483688,807.747465 L437.697061,770.960838 C434.57298,767.836756 434.57298,762.77162 437.697061,759.647539 Z M496.811196,701.947566 C494.077625,704.681137 494.077625,709.113132 496.811196,711.846703 L533.597823,748.63333 C536.331394,751.366901 540.763389,751.366901 543.49696,748.63333 L580.283587,711.846703 C583.017159,709.113132 583.017159,704.681137 580.283587,701.947566 L543.49696,665.160939 C540.763389,662.427368 536.331394,662.427368 533.597823,665.160939 L496.811196,701.947566 Z M496.104115,701.240485 L532.890742,664.453857 C536.014823,661.329776 541.07996,661.329776 544.204041,664.453857 L580.990669,701.240485 C584.11475,704.364566 584.11475,709.429703 580.990669,712.553784 L544.204041,749.340411 C541.07996,752.464493 536.014823,752.464493 532.890742,749.340411 L496.104115,712.553784 C492.980033,709.429703 492.980033,704.364566 496.104115,701.240485 Z M554.359322,644.39944 C551.625751,647.133011 551.625751,651.565005 554.359322,654.298576 L591.14595,691.085204 C593.879521,693.818775 598.311515,693.818775 601.045086,691.085204 L637.831714,654.298576 C640.565285,651.565005 640.565285,647.133011 637.831714,644.39944 L601.045086,607.612812 C598.311515,604.879241 593.879521,604.879241 591.14595,607.612812 L554.359322,644.39944 Z M553.652241,643.692359 L590.438868,606.905731 C593.56295,603.78165 598.628086,603.78165 601.752168,606.905731 L638.538795,643.692359 C641.662876,646.81644 641.662876,651.881576 638.538795,655.005658 L601.752168,691.792285 C598.628086,694.916366 593.56295,694.916366 590.438868,691.792285 L553.652241,655.005658 C550.52816,651.881576 550.52816,646.81644 553.652241,643.692359 Z M612.766376,585.992386 C610.032805,588.725957 610.032805,593.157952 612.766376,595.891523 L649.553003,632.67815 C652.286574,635.411721 656.718569,635.411721 659.45214,632.67815 L696.238767,595.891523 C698.972339,593.157952 698.972339,588.725957 696.238767,585.992386 L659.45214,549.205759 C656.718569,546.472188 652.286574,546.472188 649.553003,549.205759 L612.766376,585.992386 Z M612.059295,585.285305 L648.845922,548.498677 C651.970003,545.374596 657.03514,545.374596 660.159221,548.498677 L696.945849,585.285305 C700.06993,588.409386 700.06993,593.474523 696.945849,596.598604 L660.159221,633.385231 C657.03514,636.509313 651.970003,636.509313 648.845922,633.385231 L612.059295,596.598604 C608.935213,593.474523 608.935213,588.409386 612.059295,585.285305 Z M670.314502,528.44426 C667.580931,531.177831 667.580931,535.609825 670.314502,538.343396 L707.10113,575.130024 C709.834701,577.863595 714.266695,577.863595 717.000266,575.130024 L753.786894,538.343396 C756.520465,535.609825 756.520465,531.177831 753.786894,528.44426 L717.000266,491.657632 C714.266695,488.924061 709.834701,488.924061 707.10113,491.657632 L670.314502,528.44426 Z M669.607421,527.737179 L706.394048,490.950551 C709.51813,487.82647 714.583266,487.82647 717.707348,490.950551 L754.493975,527.737179 C757.618056,530.86126 757.618056,535.926396 754.493975,539.050478 L717.707348,575.837105 C714.583266,578.961186 709.51813,578.961186 706.394048,575.837105 L669.607421,539.050478 C666.48334,535.926396 666.48334,530.86126 669.607421,527.737179 Z M728.721556,470.037206 C725.987985,472.770777 725.987985,477.202772 728.721556,479.936343 L765.508183,516.72297 C768.241754,519.456541 772.673749,519.456541 775.40732,516.72297 L812.193947,479.936343 C814.927519,477.202772 814.927519,472.770777 812.193947,470.037206 L775.40732,433.250579 C772.673749,430.517008 768.241754,430.517008 765.508183,433.250579 L728.721556,470.037206 Z M728.014475,469.330125 L764.801102,432.543497 C767.925183,429.419416 772.99032,429.419416 776.114401,432.543497 L812.901029,469.330125 C816.02511,472.454206 816.02511,477.519343 812.901029,480.643424 L776.114401,517.430051 C772.99032,520.554133 767.925183,520.554133 764.801102,517.430051 L728.014475,480.643424 C724.890393,477.519343 724.890393,472.454206 728.014475,469.330125 Z M787.128609,411.630152 C784.395038,414.363724 784.395038,418.795718 787.128609,421.529289 L823.915237,458.315917 C826.648808,461.049488 831.080803,461.049488 833.814374,458.315917 L870.601001,421.529289 C873.334572,418.795718 873.334572,414.363724 870.601001,411.630152 L833.814374,374.843525 C831.080803,372.109954 826.648808,372.109954 823.915237,374.843525 L787.128609,411.630152 Z M786.421528,410.923071 L823.208156,374.136444 C826.332237,371.012363 831.397374,371.012363 834.521455,374.136444 L871.308082,410.923071 C874.432164,414.047153 874.432164,419.112289 871.308082,422.23637 L834.521455,459.022998 C831.397374,462.147079 826.332237,462.147079 823.208156,459.022998 L786.421528,422.23637 C783.297447,419.112289 783.297447,414.047153 786.421528,410.923071 Z M844.676736,354.082026 C841.943165,356.815597 841.943165,361.247592 844.676736,363.981163 L881.463363,400.76779 C884.196934,403.501361 888.628929,403.501361 891.3625,400.76779 L928.149127,363.981163 C930.882699,361.247592 930.882699,356.815597 928.149127,354.082026 L891.3625,317.295399 C888.628929,314.561827 884.196934,314.561827 881.463363,317.295399 L844.676736,354.082026 Z M843.969655,353.374945 L880.756282,316.588317 C883.880363,313.464236 888.9455,313.464236 892.069581,316.588317 L928.856209,353.374945 C931.98029,356.499026 931.98029,361.564163 928.856209,364.688244 L892.069581,401.474871 C888.9455,404.598953 883.880363,404.598953 880.756282,401.474871 L843.969655,364.688244 C840.845573,361.564163 840.845573,356.499026 843.969655,353.374945 Z M903.083789,295.674972 C900.350218,298.408544 900.350218,302.840538 903.083789,305.574109 L939.870417,342.360737 C942.603988,345.094308 947.035983,345.094308 949.769554,342.360737 L1020.91327,271.217019 C1023.64684,268.483448 1023.64684,264.051453 1020.91327,261.317882 L984.126644,224.531255 C981.393073,221.797683 976.961078,221.797683 974.227507,224.531255 L903.083789,295.674972 Z M902.376708,294.967891 L973.520426,223.824173 C976.644507,220.700092 981.709644,220.700092 984.833725,223.824173 L1021.62035,260.610801 C1024.74443,263.734882 1024.74443,268.800019 1021.62035,271.9241 L950.476635,343.067818 C947.352554,346.191899 942.287417,346.191899 939.163336,343.067818 L902.376708,306.28119 C899.252627,303.157109 899.252627,298.091973 902.376708,294.967891 Z M277.784745,1030.91671 C275.051174,1033.65028 275.051174,1038.08227 277.784745,1040.81584 L314.571372,1077.60247 C317.304943,1080.33604 321.736938,1080.33604 324.470509,1077.60247 L423.099899,978.97308 C425.83347,976.239509 425.83347,971.807515 423.099899,969.073944 L386.313271,932.287316 C383.5797,929.553745 379.147706,929.553745 376.414135,932.287316 L277.784745,1030.91671 Z M277.077663,1030.20963 L375.707054,931.580235 C378.831135,928.456154 383.896271,928.456154 387.020353,931.580235 L423.80698,968.366863 C426.931061,971.490944 426.931061,976.55608 423.80698,979.680162 L325.17759,1078.30955 C322.053509,1081.43363 316.988372,1081.43363 313.864291,1078.30955 L277.077663,1041.52292 C273.953582,1038.39884 273.953582,1033.33371 277.077663,1030.20963 Z M398.893488,909.807963 C396.159917,912.541534 396.159917,916.973528 398.893488,919.7071 L435.680116,956.493727 C438.413687,959.227298 442.845681,959.227298 445.579252,956.493727 L482.36588,919.7071 C485.099451,916.973528 485.099451,912.541534 482.36588,909.807963 L445.579252,873.021335 C442.845681,870.287764 438.413687,870.287764 435.680116,873.021335 L398.893488,909.807963 Z M398.186407,909.100882 L434.973035,872.314254 C438.097116,869.190173 443.162252,869.190173 446.286334,872.314254 L483.072961,909.100882 C486.197042,912.224963 486.197042,917.290099 483.072961,920.414181 L446.286334,957.200808 C443.162252,960.324889 438.097116,960.324889 434.973035,957.200808 L398.186407,920.414181 C395.062326,917.290099 395.062326,912.224963 398.186407,909.100882 Z M458.159469,850.541982 C455.425898,853.275553 455.425898,857.707548 458.159469,860.441119 L494.946097,897.227746 C497.679668,899.961317 502.111662,899.961317 504.845233,897.227746 L541.631861,860.441119 C544.365432,857.707548 544.365432,853.275553 541.631861,850.541982 L504.845233,813.755355 C502.111662,811.021783 497.679668,811.021783 494.946097,813.755355 L458.159469,850.541982 Z M457.452388,849.834901 L494.239015,813.048273 C497.363097,809.924192 502.428233,809.924192 505.552314,813.048273 L542.338942,849.834901 C545.463023,852.958982 545.463023,858.024119 542.338942,861.1482 L505.552314,897.934827 C502.428233,901.058909 497.363097,901.058909 494.239015,897.934827 L457.452388,861.1482 C454.328307,858.024119 454.328307,852.958982 457.452388,849.834901 Z M516.566523,792.134928 C513.832952,794.868499 513.832952,799.300494 516.566523,802.034065 L553.35315,838.820693 C556.086721,841.554264 560.518716,841.554264 563.252287,838.820693 L600.038914,802.034065 C602.772486,799.300494 602.772486,794.868499 600.038914,792.134928 L563.252287,755.348301 C560.518716,752.61473 556.086721,752.61473 553.35315,755.348301 L516.566523,792.134928 Z M515.859442,791.427847 L552.646069,754.64122 C555.77015,751.517138 560.835287,751.517138 563.959368,754.64122 L600.745996,791.427847 C603.870077,794.551928 603.870077,799.617065 600.745996,802.741146 L563.959368,839.527774 C560.835287,842.651855 555.77015,842.651855 552.646069,839.527774 L515.859442,802.741146 C512.73536,799.617065 512.73536,794.551928 515.859442,791.427847 Z M575.832504,732.868947 C573.098933,735.602519 573.098933,740.034513 575.832504,742.768084 L612.619131,779.554712 C615.352702,782.288283 619.784697,782.288283 622.518268,779.554712 L659.304895,742.768084 C662.038466,740.034513 662.038466,735.602519 659.304895,732.868947 L622.518268,696.08232 C619.784697,693.348749 615.352702,693.348749 612.619131,696.08232 L575.832504,732.868947 Z M575.125422,732.161866 L611.91205,695.375239 C615.036131,692.251158 620.101268,692.251158 623.225349,695.375239 L660.011976,732.161866 C663.136058,735.285948 663.136058,740.351084 660.011976,743.475165 L623.225349,780.261793 C620.101268,783.385874 615.036131,783.385874 611.91205,780.261793 L575.125422,743.475165 C572.001341,740.351084 572.001341,735.285948 575.125422,732.161866 Z M635.098485,673.602967 C632.364913,676.336538 632.364913,680.768532 635.098485,683.502103 L671.885112,720.288731 C674.618683,723.022302 679.050678,723.022302 681.784249,720.288731 L718.570876,683.502103 C721.304447,680.768532 721.304447,676.336538 718.570876,673.602967 L681.784249,636.816339 C679.050678,634.082768 674.618683,634.082768 671.885112,636.816339 L635.098485,673.602967 Z M634.391403,672.895885 L671.178031,636.109258 C674.302112,632.985177 679.367249,632.985177 682.49133,636.109258 L719.277957,672.895885 C722.402039,676.019967 722.402039,681.085103 719.277957,684.209184 L682.49133,720.995812 C679.367249,724.119893 674.302112,724.119893 671.178031,720.995812 L634.391403,684.209184 C631.267322,681.085103 631.267322,676.019967 634.391403,672.895885 Z M694.364465,614.336986 C691.630894,617.070557 691.630894,621.502551 694.364465,624.236122 L731.151093,661.02275 C733.884664,663.756321 738.316659,663.756321 741.05023,661.02275 L777.836857,624.236122 C780.570428,621.502551 780.570428,617.070557 777.836857,614.336986 L741.05023,577.550358 C738.316659,574.816787 733.884664,574.816787 731.151093,577.550358 L694.364465,614.336986 Z M693.657384,613.629904 L730.444012,576.843277 C733.568093,573.719196 738.63323,573.719196 741.757311,576.843277 L778.543938,613.629904 C781.66802,616.753986 781.66802,621.819122 778.543938,624.943204 L741.757311,661.729831 C738.63323,664.853912 733.568093,664.853912 730.444012,661.729831 L693.657384,624.943204 C690.533303,621.819122 690.533303,616.753986 693.657384,613.629904 Z M753.630446,555.071005 C750.896875,557.804576 750.896875,562.23657 753.630446,564.970141 L790.417074,601.756769 C793.150645,604.49034 797.582639,604.49034 800.316211,601.756769 L837.102838,564.970141 C839.836409,562.23657 839.836409,557.804576 837.102838,555.071005 L800.316211,518.284377 C797.582639,515.550806 793.150645,515.550806 790.417074,518.284377 L753.630446,555.071005 Z M752.923365,554.363924 L789.709993,517.577296 C792.834074,514.453215 797.89921,514.453215 801.023292,517.577296 L837.809919,554.363924 C840.934,557.488005 840.934,562.553141 837.809919,565.677223 L801.023292,602.46385 C797.89921,605.587931 792.834074,605.587931 789.709993,602.46385 L752.923365,565.677223 C749.799284,562.553141 749.799284,557.488005 752.923365,554.363924 Z M812.0375,496.663951 C809.303929,499.397522 809.303929,503.829517 812.0375,506.563088 L848.824127,543.349715 C851.557699,546.083286 855.989693,546.083286 858.723264,543.349715 L895.509892,506.563088 C898.243463,503.829517 898.243463,499.397522 895.509892,496.663951 L858.723264,459.877324 C855.989693,457.143753 851.557699,457.143753 848.824127,459.877324 L812.0375,496.663951 Z M811.330419,495.95687 L848.117046,459.170242 C851.241128,456.046161 856.306264,456.046161 859.430345,459.170242 L896.216973,495.95687 C899.341054,499.080951 899.341054,504.146088 896.216973,507.270169 L859.430345,544.056796 C856.306264,547.180878 851.241128,547.180878 848.117046,544.056796 L811.330419,507.270169 C808.206338,504.146088 808.206338,499.080951 811.330419,495.95687 Z M871.303481,437.39797 C868.56991,440.131541 868.56991,444.563536 871.303481,447.297107 L908.090108,484.083734 C910.823679,486.817305 915.255674,486.817305 917.989245,484.083734 L954.775873,447.297107 C957.509444,444.563536 957.509444,440.131541 954.775873,437.39797 L917.989245,400.611343 C915.255674,397.877772 910.823679,397.877772 908.090108,400.611343 L871.303481,437.39797 Z M870.5964,436.690889 L907.383027,399.904262 C910.507108,396.78018 915.572245,396.78018 918.696326,399.904262 L955.482954,436.690889 C958.607035,439.81497 958.607035,444.880107 955.482954,448.004188 L918.696326,484.790816 C915.572245,487.914897 910.507108,487.914897 907.383027,484.790816 L870.5964,448.004188 C867.472318,444.880107 867.472318,439.81497 870.5964,436.690889 Z M930.569462,378.131989 C927.835891,380.86556 927.835891,385.297555 930.569462,388.031126 L967.356089,424.817753 C970.08966,427.551325 974.521655,427.551325 977.255226,424.817753 L1075.88462,326.188363 C1078.61819,323.454792 1078.61819,319.022798 1075.88462,316.289227 L1039.09799,279.502599 C1036.36442,276.769028 1031.93242,276.769028 1029.19885,279.502599 L930.569462,378.131989 Z M929.862381,377.424908 L1028.49177,278.795518 C1031.61585,275.671437 1036.68099,275.671437 1039.80507,278.795518 L1076.5917,315.582145 C1079.71578,318.706227 1079.71578,323.771363 1076.5917,326.895445 L977.962307,425.524835 C974.838226,428.648916 969.773089,428.648916 966.649008,425.524835 L929.862381,388.738207 C926.738299,385.614126 926.738299,380.548989 929.862381,377.424908 Z M332.756089,1085.88805 C330.022518,1088.62162 330.022518,1093.05362 332.756089,1095.78719 L369.542717,1132.57382 C372.276288,1135.30739 376.708282,1135.30739 379.441853,1132.57382 L416.228481,1095.78719 C418.962052,1093.05362 418.962052,1088.62162 416.228481,1085.88805 L379.441853,1049.10142 C376.708282,1046.36785 372.276288,1046.36785 369.542717,1049.10142 L332.756089,1085.88805 Z M332.049008,1085.18097 L368.835636,1048.39434 C371.959717,1045.27026 377.024853,1045.27026 380.148935,1048.39434 L416.935562,1085.18097 C420.059643,1088.30505 420.059643,1093.37019 416.935562,1096.49427 L380.148935,1133.2809 C377.024853,1136.40498 371.959717,1136.40498 368.835636,1133.2809 L332.049008,1096.49427 C328.924927,1093.37019 328.924927,1088.30505 332.049008,1085.18097 Z M393.739925,1024.90422 C391.006354,1027.63779 391.006354,1032.06978 393.739925,1034.80335 L430.526552,1071.58998 C433.260123,1074.32355 437.692118,1074.32355 440.425689,1071.58998 L477.212316,1034.80335 C479.945887,1032.06978 479.945887,1027.63779 477.212316,1024.90422 L440.425689,988.117588 C437.692118,985.384017 433.260123,985.384017 430.526552,988.117588 L393.739925,1024.90422 Z M393.032843,1024.19713 L429.819471,987.410507 C432.943552,984.286426 438.008689,984.286426 441.13277,987.410507 L477.919398,1024.19713 C481.043479,1027.32122 481.043479,1032.38635 477.919398,1035.51043 L441.13277,1072.29706 C438.008689,1075.42114 432.943552,1075.42114 429.819471,1072.29706 L393.032843,1035.51043 C389.908762,1032.38635 389.908762,1027.32122 393.032843,1024.19713 Z M454.72376,963.92038 C451.990189,966.653951 451.990189,971.085946 454.72376,973.819517 L491.510388,1010.60614 C494.243959,1013.33972 498.675953,1013.33972 501.409524,1010.60614 L538.196152,973.819517 C540.929723,971.085946 540.929723,966.653951 538.196152,963.92038 L501.409524,927.133753 C498.675953,924.400182 494.243959,924.400182 491.510388,927.133753 L454.72376,963.92038 Z M454.016679,963.213299 L490.803306,926.426672 C493.927388,923.30259 498.992524,923.30259 502.116605,926.426672 L538.903233,963.213299 C542.027314,966.33738 542.027314,971.402517 538.903233,974.526598 L502.116605,1011.31323 C498.992524,1014.43731 493.927388,1014.43731 490.803306,1011.31323 L454.016679,974.526598 C450.892598,971.402517 450.892598,966.33738 454.016679,963.213299 Z M515.707596,902.936545 C512.974024,905.670116 512.974024,910.10211 515.707596,912.835681 L552.494223,949.622309 C555.227794,952.35588 559.659789,952.35588 562.39336,949.622309 L599.179987,912.835681 C601.913558,910.10211 601.913558,905.670116 599.179987,902.936545 L562.39336,866.149917 C559.659789,863.416346 555.227794,863.416346 552.494223,866.149917 L515.707596,902.936545 Z M515.000514,902.229464 L551.787142,865.442836 C554.911223,862.318755 559.97636,862.318755 563.100441,865.442836 L599.887068,902.229464 C603.01115,905.353545 603.01115,910.418681 599.887068,913.542763 L563.100441,950.32939 C559.97636,953.453471 554.911223,953.453471 551.787142,950.32939 L515.000514,913.542763 C511.876433,910.418681 511.876433,905.353545 515.000514,902.229464 Z M576.691431,841.952709 C573.95786,844.686281 573.95786,849.118275 576.691431,851.851846 L613.478058,888.638474 C616.21163,891.372045 620.643624,891.372045 623.377195,888.638474 L900.663455,611.352213 C903.397026,608.618642 903.397026,604.186648 900.663455,601.453077 L863.876828,564.666449 C861.143257,561.932878 856.711262,561.932878 853.977691,564.666449 L576.691431,841.952709 Z M575.98435,841.245628 L853.27061,563.959368 C856.394691,560.835287 861.459828,560.835287 864.583909,563.959368 L901.370536,600.745996 C904.494618,603.870077 904.494618,608.935213 901.370536,612.059295 L624.084276,889.345555 C620.960195,892.469636 615.895058,892.469636 612.770977,889.345555 L575.98435,852.558927 C572.860268,849.434846 572.860268,844.369709 575.98435,841.245628 Z M878.174899,540.469241 C875.441328,543.202812 875.441328,547.634807 878.174899,550.368378 L914.961526,587.155006 C917.695098,589.888577 922.127092,589.888577 924.860663,587.155006 L961.647291,550.368378 C964.380862,547.634807 964.380862,543.202812 961.647291,540.469241 L924.860663,503.682614 C922.127092,500.949043 917.695098,500.949043 914.961526,503.682614 L878.174899,540.469241 Z M877.467818,539.76216 L914.254445,502.975533 C917.378527,499.851451 922.443663,499.851451 925.567744,502.975533 L962.354372,539.76216 C965.478453,542.886241 965.478453,547.951378 962.354372,551.075459 L925.567744,587.862087 C922.443663,590.986168 917.378527,590.986168 914.254445,587.862087 L877.467818,551.075459 C874.343737,547.951378 874.343737,542.886241 877.467818,539.76216 Z M967.859175,505.75631 C964.454706,509.160779 964.454706,514.680514 967.859175,518.084983 L974.730593,524.956402 C978.135063,528.360871 983.654798,528.360871 987.059267,524.956402 L1021.41636,490.599311 C1024.82083,487.194842 1024.82083,481.675107 1021.41636,478.270637 L1014.54494,471.399219 C1011.14047,467.99475 1005.62073,467.99475 1002.21627,471.399219 L967.859175,505.75631 Z M967.152094,505.049229 L1001.50918,470.692138 C1005.30416,466.897159 1011.45704,466.897159 1015.25202,470.692138 L1022.12344,477.563556 C1025.91842,481.358536 1025.91842,487.511413 1022.12344,491.306392 L987.766348,525.663483 C983.971369,529.458462 977.818492,529.458462 974.023512,525.663483 L967.152094,518.792065 C963.357115,514.997085 963.357115,508.844208 967.152094,505.049229 Z M1020.25374,453.361747 C1016.84927,456.766216 1016.84927,462.285951 1020.25374,465.690421 L1027.12516,472.561839 C1030.52963,475.966308 1036.04936,475.966308 1039.45383,472.561839 L1073.81092,438.204748 C1077.21539,434.800279 1077.21539,429.280544 1073.81092,425.876075 L1066.9395,419.004657 C1063.53503,415.600187 1058.0153,415.600187 1054.61083,419.004657 L1020.25374,453.361747 Z M1019.54666,452.654666 L1053.90375,418.297575 C1057.69873,414.502596 1063.8516,414.502596 1067.64658,418.297575 L1074.518,425.168993 C1078.31298,428.963973 1078.31298,435.11685 1074.518,438.91183 L1040.16091,473.26892 C1036.36593,477.063899 1030.21305,477.063899 1026.41807,473.26892 L1019.54666,466.397502 C1015.75168,462.602522 1015.75168,456.449645 1019.54666,452.654666 Z M992.768066,425.876075 C989.363597,429.280544 989.363597,434.800279 992.768066,438.204748 L999.639484,445.076166 C1003.04395,448.480636 1008.56369,448.480636 1011.96816,445.076166 L1046.32525,410.719076 C1049.72972,407.314607 1049.72972,401.794872 1046.32525,398.390402 L1039.45383,391.518984 C1036.04936,388.114515 1030.52963,388.114515 1027.12516,391.518984 L992.768066,425.876075 Z M992.060985,425.168993 L1026.41807,390.811903 C1030.21305,387.016924 1036.36593,387.016924 1040.16091,390.811903 L1047.03233,397.683321 C1050.82731,401.4783 1050.82731,407.631178 1047.03233,411.426157 L1012.67524,445.783248 C1008.88026,449.578227 1002.72738,449.578227 998.932403,445.783248 L992.060985,438.91183 C988.266005,435.11685 988.266005,428.963973 992.060985,425.168993 Z M1075.22508,398.390402 C1071.82061,401.794872 1071.82061,407.314607 1075.22508,410.719076 L1082.0965,417.590494 C1085.50097,420.994963 1091.02071,420.994963 1094.42517,417.590494 L1128.78226,383.233404 C1132.18673,379.828934 1132.18673,374.309199 1128.78226,370.90473 L1121.91085,364.033312 C1118.50638,360.628843 1112.98664,360.628843 1109.58217,364.033312 L1075.22508,398.390402 Z M1074.518,397.683321 L1108.87509,363.326231 C1112.67007,359.531251 1118.82295,359.531251 1122.61793,363.326231 L1129.48935,370.197649 C1133.28433,373.992628 1133.28433,380.145506 1129.48935,383.940485 L1095.13226,418.297575 C1091.33728,422.092555 1085.1844,422.092555 1081.38942,418.297575 L1074.518,411.426157 C1070.72302,407.631178 1070.72302,401.4783 1074.518,397.683321 Z" id="" fill="url(#linearGradient-1)" fill-rule="nonzero"></path>
    </g>
</svg>